<svg width="21" height="22" viewBox="0 0 21 22" fill="none" xmlns="http://www.w3.org/2000/svg">
<path d="M20 10.143H16.8579C16.4412 10.143 16.0416 10.3035 15.747 10.5893C15.4523 10.8751 15.2868 11.2626 15.2868 11.6668V15.4762C15.2868 15.8804 15.4523 16.2679 15.747 16.5537C16.0416 16.8395 16.4412 17 16.8579 17H18.4289C18.8456 17 19.2452 16.8395 19.5398 16.5537C19.8345 16.2679 20 15.8804 20 15.4762V10.143ZM20 10.143C20 8.93592 19.7536 7.74079 19.275 6.62656C18.7964 5.51232 18.095 4.50104 17.2114 3.65106C16.3277 2.80108 15.2793 2.12923 14.1265 1.67427C12.9738 1.21932 11.7396 0.990259 10.4951 1.00032C9.25143 0.991522 8.01827 1.22151 6.86667 1.67703C5.71507 2.13256 4.66778 2.80461 3.78517 3.65446C2.90256 4.50431 2.20207 5.51517 1.72406 6.62878C1.24605 7.74238 0.999967 8.93673 1 10.143V15.4762C1 15.8804 1.16552 16.2679 1.46015 16.5537C1.75478 16.8395 2.15439 17 2.57106 17H4.14212C4.55879 17 4.95839 16.8395 5.25303 16.5537C5.54766 16.2679 5.71318 15.8804 5.71318 15.4762V11.6668C5.71318 11.2626 5.54766 10.8751 5.25303 10.5893C4.95839 10.3035 4.55879 10.143 4.14212 10.143H1" stroke="#1C1F35" stroke-width="2" stroke-linecap="round" stroke-linejoin="round"/>
<path d="M20 16V18.1429C20 18.9006 19.661 19.6273 19.0575 20.1632C18.454 20.699 17.6356 21 16.7821 21H11" stroke="#1C1F35" stroke-width="2" stroke-linecap="round" stroke-linejoin="round"/>
</svg>
