<svg width="33" height="51" viewBox="0 0 33 51" fill="none" xmlns="http://www.w3.org/2000/svg">
<path d="M15 25.5L1.7 15.525C1.4839 15.3608 1.3084 15.1492 1.18703 14.9065C1.06566 14.6638 1.00167 14.3964 1 14.125V6.25C1 5.78587 1.18437 5.34075 1.51256 5.01256C1.84075 4.68437 2.28587 4.5 2.75 4.5H27.25C27.7141 4.5 28.1593 4.68437 28.4874 5.01256C28.8156 5.34075 29 5.78587 29 6.25V14.0375C28.9983 14.3089 28.9343 14.5763 28.813 14.819C28.6916 15.0617 28.5161 15.2733 28.3 15.4375L15 25.5Z" fill="#FFD550" stroke="#1C1F35" stroke-width="2" stroke-linecap="round" stroke-linejoin="round"/>
<path d="M3 16.5H27" stroke="#1C1F35" stroke-width="2" stroke-linecap="round" stroke-linejoin="round"/>
<path d="M15 25.5L1.7 35.475C1.4839 35.6392 1.3084 35.8508 1.18703 36.0935C1.06566 36.3362 1.00167 36.6036 1 36.875V44.75C1 45.2141 1.18437 45.6592 1.51256 45.9874C1.84075 46.3156 2.28587 46.5 2.75 46.5H27.25C27.7141 46.5 28.1592 46.3156 28.4874 45.9874C28.8156 45.6592 29 45.2141 29 44.75V36.9625C28.9983 36.6911 28.9343 36.4238 28.813 36.181C28.6916 35.9383 28.5161 35.7267 28.3 35.5625L15 25.5Z" stroke="#1C1F35" stroke-width="2" stroke-linecap="round" stroke-linejoin="round"/>
<path d="M15 34.5V25.5" stroke="#1C1F35" stroke-width="2" stroke-linecap="round" stroke-linejoin="round"/>
<path d="M32 4.5L32 9.5" stroke="#1C1F35" stroke-width="1.5" stroke-linecap="round" stroke-linejoin="round"/>
<path d="M4 38.5L4 43.5" stroke="#1C1F35" stroke-width="1.5" stroke-linecap="round" stroke-linejoin="round"/>
<path d="M16 1.5L1 1.5" stroke="#1C1F35" stroke-width="1.5" stroke-linecap="round" stroke-linejoin="round"/>
<path d="M28 49.5H13" stroke="#1C1F35" stroke-width="1.5" stroke-linecap="round" stroke-linejoin="round"/>
<path d="M28.8524 31.6935L21 25.5" stroke="#1C1F35" stroke-width="1.5" stroke-linecap="round" stroke-linejoin="round"/>
<path d="M19 13.5L4 13.5" stroke="white" stroke-width="1.5" stroke-linecap="round" stroke-linejoin="round"/>
</svg>
