<svg width="50" height="51" viewBox="0 0 50 51" fill="none" xmlns="http://www.w3.org/2000/svg">
<path d="M39.1821 1.5H46.8185C47.3971 1.5 47.9521 1.72987 48.3613 2.13904C48.7704 2.54821 49.0003 3.10316 49.0003 3.68182V11.3182" stroke="#1C1F35" stroke-width="2" stroke-linecap="round" stroke-linejoin="round"/>
<path d="M39.1821 49.5001H46.8185C47.3971 49.5001 47.9521 49.2702 48.3613 48.861C48.7704 48.4519 49.0003 47.8969 49.0003 47.3182V39.6819" stroke="#1C1F35" stroke-width="2" stroke-linecap="round" stroke-linejoin="round"/>
<path d="M10.8182 49.5001H3.18182C2.60316 49.5001 2.04821 49.2702 1.63904 48.861C1.22987 48.4519 1 47.8969 1 47.3182V39.6819" stroke="#1C1F35" stroke-width="2" stroke-linecap="round" stroke-linejoin="round"/>
<path d="M10.8182 1.5H3.18182C2.60316 1.5 2.04821 1.72987 1.63904 2.13904C1.22987 2.54821 1 3.10316 1 3.68182V11.3182" stroke="#1C1F35" stroke-width="2" stroke-linecap="round" stroke-linejoin="round"/>
<path d="M25.0005 29.8637C29.8204 29.8637 33.7277 25.9564 33.7277 21.1365C33.7277 16.3165 29.8204 12.4092 25.0005 12.4092C20.1805 12.4092 16.2732 16.3165 16.2732 21.1365C16.2732 25.9564 20.1805 29.8637 25.0005 29.8637Z" fill="#FFD550" stroke="#1C1F35" stroke-width="2" stroke-linecap="round" stroke-linejoin="round"/>
<path d="M10.5188 38.5909C11.9135 35.96 13.9985 33.7588 16.55 32.2236C19.1014 30.6884 22.0229 29.8772 25.0006 29.8772C27.9783 29.8772 30.8998 30.6884 33.4512 32.2236C36.0027 33.7588 38.0877 35.96 39.4824 38.5909" stroke="#1C1F35" stroke-width="2" stroke-linecap="round" stroke-linejoin="round"/>
<path d="M7.95102 37.2514C9 35.5 10 33.5 12.7773 31.4407" stroke="#1C1F35" stroke-width="1.5" stroke-linecap="round" stroke-linejoin="round"/>
<path d="M31.9114 11.3678C33.5 12.5 35.5 14.5 36.4004 17.4429" stroke="#1C1F35" stroke-width="1.5" stroke-linecap="round" stroke-linejoin="round"/>
<path d="M19.5699 22.0509C18.7107 20.2559 19.7109 16.2559 23.3923 15.5357" stroke="white" stroke-width="1.5" stroke-linecap="round" stroke-linejoin="round"/>
</svg>
